<mxfile host="app.diagrams.net" modified="2023-04-07T06:53:36.539Z" agent="Mozilla/5.0 (Windows NT 10.0; Win64; x64) AppleWebKit/537.36 (KHTML, like Gecko) Chrome/111.0.0.0 Safari/537.36" etag="wPbHbLzjnjXPGC4nk4OK" version="21.1.5" type="github">
  <diagram name="Page-1" id="ypgTsH3PudnpAT3icELS">
    <mxGraphModel dx="1290" dy="577" grid="1" gridSize="10" guides="1" tooltips="1" connect="1" arrows="1" fold="1" page="1" pageScale="1" pageWidth="850" pageHeight="1100" math="0" shadow="0">
      <root>
        <mxCell id="0" />
        <mxCell id="1" parent="0" />
        <mxCell id="KYKQ627Y8Sd5rZoZEpCt-1" value="YÖS" style="rounded=0;whiteSpace=wrap;html=1;" parent="1" vertex="1">
          <mxGeometry x="30" y="310" width="120" height="60" as="geometry" />
        </mxCell>
        <mxCell id="KYKQ627Y8Sd5rZoZEpCt-2" value="AYRIK GKD YÖS QR MODEL - PIN (Y)" style="text;strokeColor=none;fillColor=none;html=1;fontSize=24;fontStyle=1;verticalAlign=middle;align=center;" parent="1" vertex="1">
          <mxGeometry x="375" y="30" width="100" height="40" as="geometry" />
        </mxCell>
        <mxCell id="KYKQ627Y8Sd5rZoZEpCt-3" value="GEÇİT" style="ellipse;shape=cloud;whiteSpace=wrap;html=1;" parent="1" vertex="1">
          <mxGeometry x="360" y="320" width="120" height="80" as="geometry" />
        </mxCell>
        <mxCell id="KYKQ627Y8Sd5rZoZEpCt-4" value="HHS" style="rounded=0;whiteSpace=wrap;html=1;" parent="1" vertex="1">
          <mxGeometry x="560" y="330" width="120" height="60" as="geometry" />
        </mxCell>
        <mxCell id="KYKQ627Y8Sd5rZoZEpCt-5" value="POST/ohvps/obh/s1.1/odeme-emri-rizasi&lt;br&gt;RizaNesnesi&lt;br&gt;{&lt;br&gt;...&lt;br&gt;&lt;div&gt;&amp;nbsp; &quot;gkd&quot;: {&lt;/div&gt;&lt;div&gt;&amp;nbsp; &amp;nbsp; &quot;yetYntm&quot;: &quot;A&quot;,&lt;/div&gt;&lt;div&gt;&amp;nbsp; &amp;nbsp; &quot;yonAdr&quot;: &quot;https://yosAdr?drmKod&quot;,&lt;/div&gt;&lt;div&gt;&amp;nbsp; &amp;nbsp; &amp;nbsp;&quot;ayrikGkd&quot;&lt;span style=&quot;white-space: pre;&quot;&gt; &lt;/span&gt;:{&lt;br&gt;&lt;/div&gt;&lt;div&gt;&lt;span style=&quot;white-space: pre;&quot;&gt; &lt;/span&gt;&amp;nbsp; &amp;nbsp;&quot;model&quot; : &quot;Y&quot;&lt;span style=&quot;white-space: pre;&quot;&gt; &lt;/span&gt;,// QR kod&lt;br&gt;&lt;/div&gt;&lt;div&gt;&lt;span style=&quot;white-space: pre;&quot;&gt; &lt;/span&gt;&amp;nbsp; &amp;nbsp;&quot;belirtec&quot;: &quot;123456&quot;&amp;nbsp;&lt;br&gt;&lt;/div&gt;&lt;div&gt;&amp;nbsp; &amp;nbsp; &amp;nbsp;}&lt;/div&gt;&lt;div&gt;&amp;nbsp; },&lt;/div&gt;...&lt;br&gt;&quot;rizaNo&quot;: &quot;123&quot;&lt;br&gt;}" style="shape=note;whiteSpace=wrap;html=1;backgroundOutline=1;darkOpacity=0.05;align=left;" parent="1" vertex="1">
          <mxGeometry x="300" y="400" width="380" height="230" as="geometry" />
        </mxCell>
        <mxCell id="KYKQ627Y8Sd5rZoZEpCt-6" value="" style="endArrow=classic;html=1;rounded=0;exitX=1;exitY=0.5;exitDx=0;exitDy=0;" parent="1" target="KYKQ627Y8Sd5rZoZEpCt-3" edge="1">
          <mxGeometry width="50" height="50" relative="1" as="geometry">
            <mxPoint x="160" y="360" as="sourcePoint" />
            <mxPoint x="300" y="310" as="targetPoint" />
          </mxGeometry>
        </mxCell>
        <mxCell id="KYKQ627Y8Sd5rZoZEpCt-7" value="" style="endArrow=classic;html=1;rounded=0;" parent="1" edge="1">
          <mxGeometry width="50" height="50" relative="1" as="geometry">
            <mxPoint x="470" y="359.5" as="sourcePoint" />
            <mxPoint x="560" y="360" as="targetPoint" />
          </mxGeometry>
        </mxCell>
        <mxCell id="KYKQ627Y8Sd5rZoZEpCt-13" value="&lt;h1&gt;&lt;font style=&quot;font-size: 18px;&quot;&gt;1. YÖS rıza için QR üretir&lt;/font&gt;&lt;/h1&gt;&lt;p&gt;YÖS ÖHK&#39;yi tanısın veya tanımasın QR kod üreterek bu QR üzerinden işlem başlatılmasını ister.&lt;/p&gt;" style="text;html=1;strokeColor=none;fillColor=none;spacing=5;spacingTop=-20;whiteSpace=wrap;overflow=hidden;rounded=0;" parent="1" vertex="1">
          <mxGeometry x="70" y="120" width="210" height="70" as="geometry" />
        </mxCell>
        <mxCell id="KYKQ627Y8Sd5rZoZEpCt-16" value="&lt;h1&gt;&lt;font style=&quot;font-size: 18px;&quot;&gt;2. Rıza oluşturma&lt;/font&gt;&lt;/h1&gt;&lt;p&gt;YÖS rıza oluşturur. gkd.ayrikGkd.belirtec değerine QR kod PIN bilgisini HHS&#39;ye iletir&lt;/p&gt;" style="text;html=1;strokeColor=none;fillColor=none;spacing=5;spacingTop=-20;whiteSpace=wrap;overflow=hidden;rounded=0;" parent="1" vertex="1">
          <mxGeometry x="80" y="400" width="210" height="110" as="geometry" />
        </mxCell>
        <mxCell id="KYKQ627Y8Sd5rZoZEpCt-20" value="GEÇİT" style="ellipse;shape=cloud;whiteSpace=wrap;html=1;" parent="1" vertex="1">
          <mxGeometry x="365" y="1010" width="120" height="80" as="geometry" />
        </mxCell>
        <mxCell id="KYKQ627Y8Sd5rZoZEpCt-22" value="HHS" style="rounded=0;whiteSpace=wrap;html=1;" parent="1" vertex="1">
          <mxGeometry x="600" y="1020" width="120" height="60" as="geometry" />
        </mxCell>
        <mxCell id="KYKQ627Y8Sd5rZoZEpCt-23" value="POST /ohvps/ods/s1.1/olay&lt;br&gt;Olay&lt;br&gt;{&lt;br&gt;&lt;div style=&quot;border-color: var(--border-color);&quot;&gt;&amp;nbsp; &amp;nbsp; &quot;olayTip&quot;: &quot;AYRIK_GKD_TAMAMLANDI&quot;,&lt;/div&gt;&lt;div style=&quot;border-color: var(--border-color);&quot;&gt;&amp;nbsp; &amp;nbsp; &quot;kaynakTip&quot;: &quot;OdemeEmriRizasi&quot;,&lt;/div&gt;&lt;div style=&quot;border-color: var(--border-color);&quot;&gt;&amp;nbsp; &amp;nbsp; &amp;nbsp;&quot;kaynakNo&quot;: &quot;123&quot;&lt;/div&gt;}" style="shape=note;whiteSpace=wrap;html=1;backgroundOutline=1;darkOpacity=0.05;align=left;" parent="1" vertex="1">
          <mxGeometry x="330" y="1100" width="270" height="190" as="geometry" />
        </mxCell>
        <mxCell id="KYKQ627Y8Sd5rZoZEpCt-24" value="" style="endArrow=classic;html=1;rounded=0;" parent="1" source="KYKQ627Y8Sd5rZoZEpCt-20" edge="1">
          <mxGeometry width="50" height="50" relative="1" as="geometry">
            <mxPoint x="340" y="1000" as="sourcePoint" />
            <mxPoint x="200" y="1050" as="targetPoint" />
          </mxGeometry>
        </mxCell>
        <mxCell id="KYKQ627Y8Sd5rZoZEpCt-25" value="" style="endArrow=classic;html=1;rounded=0;entryX=0.955;entryY=0.545;entryDx=0;entryDy=0;entryPerimeter=0;" parent="1" target="KYKQ627Y8Sd5rZoZEpCt-20" edge="1">
          <mxGeometry width="50" height="50" relative="1" as="geometry">
            <mxPoint x="600" y="1050" as="sourcePoint" />
            <mxPoint x="510" y="1049.5" as="targetPoint" />
          </mxGeometry>
        </mxCell>
        <mxCell id="KYKQ627Y8Sd5rZoZEpCt-32" value="YÖS" style="rounded=0;whiteSpace=wrap;html=1;" parent="1" vertex="1">
          <mxGeometry x="80" y="1020" width="120" height="60" as="geometry" />
        </mxCell>
        <mxCell id="KYKQ627Y8Sd5rZoZEpCt-33" value="&lt;h1&gt;&lt;font style=&quot;font-size: 18px;&quot;&gt;5. HHS&#39;den YÖS&#39;e olay bilgilendirme&lt;/font&gt;&lt;/h1&gt;&lt;p&gt;HHS ilgili rıza için GKD&#39;nin tamamlanma bilgisini YÖS&#39;e iletir.&amp;nbsp;&lt;/p&gt;&lt;p&gt;&lt;br&gt;&lt;/p&gt;" style="text;html=1;strokeColor=none;fillColor=none;spacing=5;spacingTop=-20;whiteSpace=wrap;overflow=hidden;rounded=0;" parent="1" vertex="1">
          <mxGeometry x="680" y="1100" width="320" height="140" as="geometry" />
        </mxCell>
        <mxCell id="KYKQ627Y8Sd5rZoZEpCt-36" value="GEÇİT" style="ellipse;shape=cloud;whiteSpace=wrap;html=1;" parent="1" vertex="1">
          <mxGeometry x="375" y="1465" width="120" height="80" as="geometry" />
        </mxCell>
        <mxCell id="KYKQ627Y8Sd5rZoZEpCt-38" value="HHS" style="rounded=0;whiteSpace=wrap;html=1;" parent="1" vertex="1">
          <mxGeometry x="610" y="1485" width="120" height="60" as="geometry" />
        </mxCell>
        <mxCell id="KYKQ627Y8Sd5rZoZEpCt-39" value="GET /ohvps/gkd/s1.1/yetkilendirme-kodu?rizaNo=123&amp;amp;rizaTip=O&lt;br&gt;YetkilendirmeKodu&lt;br&gt;{&lt;br&gt;&lt;span style=&quot;white-space: pre;&quot;&gt; &lt;/span&gt;&quot;yetKod&quot; : &quot;ABC&quot;,&lt;br&gt;&lt;span style=&quot;white-space: pre;&quot;&gt; &lt;/span&gt;&quot;rizaDrm&quot;: &quot;Y&quot;,&lt;br&gt;&lt;span style=&quot;white-space: pre;&quot;&gt; &lt;/span&gt;&amp;nbsp;&quot;rizaNo&quot;: &quot;123&quot;&lt;br&gt;}&lt;br&gt;Mesaj imzalama için POST sorgusu yapılabilir." style="shape=note;whiteSpace=wrap;html=1;backgroundOutline=1;darkOpacity=0.05;align=left;" parent="1" vertex="1">
          <mxGeometry x="280" y="1555" width="370" height="120" as="geometry" />
        </mxCell>
        <mxCell id="KYKQ627Y8Sd5rZoZEpCt-40" value="" style="endArrow=classic;html=1;rounded=0;" parent="1" target="KYKQ627Y8Sd5rZoZEpCt-36" edge="1">
          <mxGeometry width="50" height="50" relative="1" as="geometry">
            <mxPoint x="210" y="1505" as="sourcePoint" />
            <mxPoint x="350" y="1455" as="targetPoint" />
          </mxGeometry>
        </mxCell>
        <mxCell id="KYKQ627Y8Sd5rZoZEpCt-41" value="" style="endArrow=classic;html=1;rounded=0;entryX=0.955;entryY=0.545;entryDx=0;entryDy=0;entryPerimeter=0;exitX=0.955;exitY=0.545;exitDx=0;exitDy=0;exitPerimeter=0;" parent="1" source="KYKQ627Y8Sd5rZoZEpCt-36" edge="1">
          <mxGeometry width="50" height="50" relative="1" as="geometry">
            <mxPoint x="520" y="1504.5" as="sourcePoint" />
            <mxPoint x="610" y="1505" as="targetPoint" />
          </mxGeometry>
        </mxCell>
        <mxCell id="KYKQ627Y8Sd5rZoZEpCt-43" value="&lt;h1&gt;&lt;font style=&quot;font-size: 18px;&quot;&gt;6. YÖS yetkilendirme kodu sorgular&lt;/font&gt;&lt;/h1&gt;&lt;p&gt;YÖS kendisine gelen olay bildirimi sonrası yetkilendirme kodu sorgusu yaparak yetkilendirme koduna ulaşır.&lt;/p&gt;" style="text;html=1;strokeColor=none;fillColor=none;spacing=5;spacingTop=-20;whiteSpace=wrap;overflow=hidden;rounded=0;" parent="1" vertex="1">
          <mxGeometry x="35" y="1557.5" width="230" height="135" as="geometry" />
        </mxCell>
        <mxCell id="KYKQ627Y8Sd5rZoZEpCt-44" value="YÖS" style="rounded=0;whiteSpace=wrap;html=1;" parent="1" vertex="1">
          <mxGeometry x="90" y="1475" width="120" height="60" as="geometry" />
        </mxCell>
        <mxCell id="KYKQ627Y8Sd5rZoZEpCt-46" value="POST /ohvps/gkd/s1.1/erisim-belirteci&lt;br&gt;ErisimBelirteci - İsteği&lt;br&gt;{&lt;br&gt;&lt;div style=&quot;border-color: var(--border-color);&quot;&gt;&amp;nbsp; &amp;nbsp; &quot;rizaTip&quot;: &quot;O&quot;,&lt;/div&gt;&lt;div style=&quot;border-color: var(--border-color);&quot;&gt;&amp;nbsp; &amp;nbsp; &quot;rizaNo&quot;: &quot;123&quot;,&lt;/div&gt;&lt;div style=&quot;border-color: var(--border-color);&quot;&gt;&amp;nbsp; &amp;nbsp; &quot;yetkilendirmeTipi&quot;: &quot;yetKod&quot;,&lt;/div&gt;&lt;div style=&quot;border-color: var(--border-color);&quot;&gt;&amp;nbsp; &amp;nbsp; &quot;yetKod&quot;:&quot;ABC&quot;&lt;/div&gt;}&lt;br&gt;&lt;br&gt;{&lt;br&gt;&amp;nbsp;&quot;erisimBelirteci&quot; : &quot;eee&quot;,&lt;br&gt;&amp;nbsp;&quot;yenilemeBelirteci&quot; : &quot;yyy&quot;,&lt;br&gt;...&lt;br&gt;}" style="shape=note;whiteSpace=wrap;html=1;backgroundOutline=1;darkOpacity=0.05;align=left;" parent="1" vertex="1">
          <mxGeometry x="280" y="1730" width="400" height="200" as="geometry" />
        </mxCell>
        <mxCell id="KYKQ627Y8Sd5rZoZEpCt-47" value="&lt;h1&gt;&lt;font style=&quot;font-size: 18px;&quot;&gt;7. YÖS erişim belirteci alır&lt;/font&gt;&lt;/h1&gt;&lt;p&gt;YÖS kendisine gelen olay bildirimi sonrası yetkilendirme kodu sorgusu yaparak yetkilendirme koduna ulaşır.&lt;/p&gt;" style="text;html=1;strokeColor=none;fillColor=none;spacing=5;spacingTop=-20;whiteSpace=wrap;overflow=hidden;rounded=0;" parent="1" vertex="1">
          <mxGeometry x="35" y="1732.5" width="230" height="135" as="geometry" />
        </mxCell>
        <mxCell id="k4uzDaEEoEpfmI62Issd-10" style="edgeStyle=orthogonalEdgeStyle;rounded=0;orthogonalLoop=1;jettySize=auto;html=1;exitX=0.571;exitY=1.048;exitDx=0;exitDy=0;exitPerimeter=0;" parent="1" source="k4uzDaEEoEpfmI62Issd-53" edge="1">
          <mxGeometry relative="1" as="geometry">
            <mxPoint x="570" y="320" as="targetPoint" />
          </mxGeometry>
        </mxCell>
        <mxCell id="k4uzDaEEoEpfmI62Issd-1" value="" style="shape=image;html=1;verticalAlign=top;verticalLabelPosition=bottom;labelBackgroundColor=#ffffff;imageAspect=0;aspect=fixed;image=https://cdn1.iconfinder.com/data/icons/100-basic-for-user-interface/32/68-qr_code-128.png" parent="1" vertex="1">
          <mxGeometry x="280" y="120" width="60" height="60" as="geometry" />
        </mxCell>
        <mxCell id="k4uzDaEEoEpfmI62Issd-2" value="123456" style="text;html=1;strokeColor=none;fillColor=none;align=center;verticalAlign=middle;whiteSpace=wrap;rounded=0;" parent="1" vertex="1">
          <mxGeometry x="280" y="180" width="60" height="30" as="geometry" />
        </mxCell>
        <mxCell id="k4uzDaEEoEpfmI62Issd-3" value="ÖHK" style="shape=umlActor;verticalLabelPosition=bottom;verticalAlign=top;html=1;outlineConnect=0;" parent="1" vertex="1">
          <mxGeometry x="605" y="110" width="30" height="60" as="geometry" />
        </mxCell>
        <mxCell id="k4uzDaEEoEpfmI62Issd-7" value="&lt;h1&gt;&lt;font style=&quot;font-size: 18px;&quot;&gt;4. ÖHK QR kod okuma adımı&lt;/font&gt;&lt;/h1&gt;&lt;p&gt;&lt;br&gt;&lt;/p&gt;&lt;p&gt;&lt;span style=&quot;background-color: initial;&quot;&gt;ÖHK HHS sistemine giriş yapar ve QR kod okuma yapması beklenir. (5 dk içinde QR-Okuma + GKD )&lt;/span&gt;&lt;/p&gt;&lt;p&gt;&lt;span style=&quot;background-color: initial;&quot;&gt;QR kod okutulduğunda ilgili QR-Kod ile eşleşen rıza için ÖHK tanınmış olur. Eğer rızada ÖHK bilgisi geldi ve bu bilgi QR okutan ÖHK ile eşleşmiyor ise rıza iptal edilir.&lt;/span&gt;&lt;/p&gt;&lt;p&gt;ÖHK&#39;nin rızayı onaylaması beklenir. Rıza onaylandığında GKD tamamlanmış olur.&amp;nbsp;&lt;/p&gt;&lt;p&gt;HHS bu aşamada ilgili rıza için yetkod üretmiş ve rıza ile eşleştirmiş olmalıdır.&amp;nbsp;&lt;br&gt;&lt;/p&gt;&lt;p&gt;&lt;span style=&quot;background-color: initial;&quot;&gt;.&lt;/span&gt;&lt;/p&gt;" style="text;html=1;strokeColor=none;fillColor=none;spacing=5;spacingTop=-20;whiteSpace=wrap;overflow=hidden;rounded=0;" parent="1" vertex="1">
          <mxGeometry x="680" y="70" width="370" height="240" as="geometry" />
        </mxCell>
        <mxCell id="KYKQ627Y8Sd5rZoZEpCt-17" value="&lt;h1&gt;&lt;font style=&quot;font-size: 18px;&quot;&gt;3. HHS rıza yanıtı döner&lt;/font&gt;&lt;/h1&gt;&lt;p&gt;&lt;br&gt;&lt;/p&gt;&lt;p&gt;HHS ayrık GKD destekliyor ise rızayı oluşturur ve&amp;nbsp;&lt;/p&gt;gkd.ayrikGkd.belirtec&#39; te yer alan QR-kod değerini rıza ile eşleştirimiş halde 5 dakika boyunca saklar.&amp;nbsp;&lt;p&gt;Ayrık GKD desteklenmiyor ise veya QR-Kod değeri son 5 dakika içinde üretilen başka bir kod ile çakışıyor&amp;nbsp; ise uygun hata mesajını döner.&lt;/p&gt;" style="text;html=1;strokeColor=none;fillColor=none;spacing=5;spacingTop=-20;whiteSpace=wrap;overflow=hidden;rounded=0;" parent="1" vertex="1">
          <mxGeometry x="700" y="355" width="370" height="200" as="geometry" />
        </mxCell>
        <mxCell id="k4uzDaEEoEpfmI62Issd-37" value="" style="shape=table;startSize=0;container=1;collapsible=0;childLayout=tableLayout;fontSize=16;points=[[0,0,0,0,0],[0,0.25,0,0,0],[0,0.5,0,0,0],[0,0.75,0,0,0],[0,1,0,0,0],[0.25,0,0,0,0],[0.25,1,0,0,0],[0.5,0,0,0,0],[0.5,1,0,0,0],[0.75,0,0,0,0],[0.75,1,0,0,0],[1,0,0,0,0],[1,0.25,0,0,0],[1,0.5,0,0,0],[1,0.75,0,0,0],[1,1,0,0,0]];" parent="1" vertex="1">
          <mxGeometry x="1120" y="165" width="200" height="120" as="geometry" />
        </mxCell>
        <mxCell id="k4uzDaEEoEpfmI62Issd-38" value="" style="shape=tableRow;horizontal=0;startSize=0;swimlaneHead=0;swimlaneBody=0;strokeColor=inherit;top=0;left=0;bottom=0;right=0;collapsible=0;dropTarget=0;fillColor=none;points=[[0,0.5],[1,0.5]];portConstraint=eastwest;fontSize=16;" parent="k4uzDaEEoEpfmI62Issd-37" vertex="1">
          <mxGeometry width="200" height="40" as="geometry" />
        </mxCell>
        <mxCell id="k4uzDaEEoEpfmI62Issd-39" value="ÖHK" style="shape=partialRectangle;html=1;whiteSpace=wrap;connectable=0;strokeColor=inherit;overflow=hidden;fillColor=none;top=0;left=0;bottom=0;right=0;pointerEvents=1;fontSize=16;" parent="k4uzDaEEoEpfmI62Issd-38" vertex="1">
          <mxGeometry width="67" height="40" as="geometry">
            <mxRectangle width="67" height="40" as="alternateBounds" />
          </mxGeometry>
        </mxCell>
        <mxCell id="k4uzDaEEoEpfmI62Issd-40" value="Qr-Kod&lt;span style=&quot;white-space: pre;&quot;&gt; &lt;/span&gt;" style="shape=partialRectangle;html=1;whiteSpace=wrap;connectable=0;strokeColor=inherit;overflow=hidden;fillColor=none;top=0;left=0;bottom=0;right=0;pointerEvents=1;fontSize=16;" parent="k4uzDaEEoEpfmI62Issd-38" vertex="1">
          <mxGeometry x="67" width="66" height="40" as="geometry">
            <mxRectangle width="66" height="40" as="alternateBounds" />
          </mxGeometry>
        </mxCell>
        <mxCell id="k4uzDaEEoEpfmI62Issd-41" value="Rıza&lt;br&gt;" style="shape=partialRectangle;html=1;whiteSpace=wrap;connectable=0;strokeColor=inherit;overflow=hidden;fillColor=none;top=0;left=0;bottom=0;right=0;pointerEvents=1;fontSize=16;" parent="k4uzDaEEoEpfmI62Issd-38" vertex="1">
          <mxGeometry x="133" width="67" height="40" as="geometry">
            <mxRectangle width="67" height="40" as="alternateBounds" />
          </mxGeometry>
        </mxCell>
        <mxCell id="k4uzDaEEoEpfmI62Issd-42" value="" style="shape=tableRow;horizontal=0;startSize=0;swimlaneHead=0;swimlaneBody=0;strokeColor=inherit;top=0;left=0;bottom=0;right=0;collapsible=0;dropTarget=0;fillColor=none;points=[[0,0.5],[1,0.5]];portConstraint=eastwest;fontSize=16;" parent="k4uzDaEEoEpfmI62Issd-37" vertex="1">
          <mxGeometry y="40" width="200" height="40" as="geometry" />
        </mxCell>
        <mxCell id="k4uzDaEEoEpfmI62Issd-43" value="-" style="shape=partialRectangle;html=1;whiteSpace=wrap;connectable=0;strokeColor=inherit;overflow=hidden;fillColor=none;top=0;left=0;bottom=0;right=0;pointerEvents=1;fontSize=16;" parent="k4uzDaEEoEpfmI62Issd-42" vertex="1">
          <mxGeometry width="67" height="40" as="geometry">
            <mxRectangle width="67" height="40" as="alternateBounds" />
          </mxGeometry>
        </mxCell>
        <mxCell id="k4uzDaEEoEpfmI62Issd-44" value="123456" style="shape=partialRectangle;html=1;whiteSpace=wrap;connectable=0;strokeColor=inherit;overflow=hidden;fillColor=none;top=0;left=0;bottom=0;right=0;pointerEvents=1;fontSize=16;" parent="k4uzDaEEoEpfmI62Issd-42" vertex="1">
          <mxGeometry x="67" width="66" height="40" as="geometry">
            <mxRectangle width="66" height="40" as="alternateBounds" />
          </mxGeometry>
        </mxCell>
        <mxCell id="k4uzDaEEoEpfmI62Issd-45" value="123" style="shape=partialRectangle;html=1;whiteSpace=wrap;connectable=0;strokeColor=inherit;overflow=hidden;fillColor=none;top=0;left=0;bottom=0;right=0;pointerEvents=1;fontSize=16;" parent="k4uzDaEEoEpfmI62Issd-42" vertex="1">
          <mxGeometry x="133" width="67" height="40" as="geometry">
            <mxRectangle width="67" height="40" as="alternateBounds" />
          </mxGeometry>
        </mxCell>
        <mxCell id="k4uzDaEEoEpfmI62Issd-46" value="" style="shape=tableRow;horizontal=0;startSize=0;swimlaneHead=0;swimlaneBody=0;strokeColor=inherit;top=0;left=0;bottom=0;right=0;collapsible=0;dropTarget=0;fillColor=none;points=[[0,0.5],[1,0.5]];portConstraint=eastwest;fontSize=16;" parent="k4uzDaEEoEpfmI62Issd-37" vertex="1">
          <mxGeometry y="80" width="200" height="40" as="geometry" />
        </mxCell>
        <mxCell id="k4uzDaEEoEpfmI62Issd-47" value="Kemal" style="shape=partialRectangle;html=1;whiteSpace=wrap;connectable=0;strokeColor=inherit;overflow=hidden;fillColor=none;top=0;left=0;bottom=0;right=0;pointerEvents=1;fontSize=16;" parent="k4uzDaEEoEpfmI62Issd-46" vertex="1">
          <mxGeometry width="67" height="40" as="geometry">
            <mxRectangle width="67" height="40" as="alternateBounds" />
          </mxGeometry>
        </mxCell>
        <mxCell id="k4uzDaEEoEpfmI62Issd-48" value="123456" style="shape=partialRectangle;html=1;whiteSpace=wrap;connectable=0;strokeColor=inherit;overflow=hidden;fillColor=none;top=0;left=0;bottom=0;right=0;pointerEvents=1;fontSize=16;" parent="k4uzDaEEoEpfmI62Issd-46" vertex="1">
          <mxGeometry x="67" width="66" height="40" as="geometry">
            <mxRectangle width="66" height="40" as="alternateBounds" />
          </mxGeometry>
        </mxCell>
        <mxCell id="k4uzDaEEoEpfmI62Issd-49" value="123" style="shape=partialRectangle;html=1;whiteSpace=wrap;connectable=0;strokeColor=inherit;overflow=hidden;fillColor=none;top=0;left=0;bottom=0;right=0;pointerEvents=1;fontSize=16;" parent="k4uzDaEEoEpfmI62Issd-46" vertex="1">
          <mxGeometry x="133" width="67" height="40" as="geometry">
            <mxRectangle width="67" height="40" as="alternateBounds" />
          </mxGeometry>
        </mxCell>
        <mxCell id="k4uzDaEEoEpfmI62Issd-57" style="edgeStyle=orthogonalEdgeStyle;rounded=0;orthogonalLoop=1;jettySize=auto;html=1;" parent="1" source="k4uzDaEEoEpfmI62Issd-53" edge="1">
          <mxGeometry relative="1" as="geometry">
            <mxPoint x="350" y="145" as="targetPoint" />
          </mxGeometry>
        </mxCell>
        <mxCell id="k4uzDaEEoEpfmI62Issd-53" value="" style="sketch=0;html=1;aspect=fixed;strokeColor=none;shadow=0;fillColor=#3B8DF1;verticalAlign=top;labelPosition=center;verticalLabelPosition=bottom;shape=mxgraph.gcp2.phone_android" parent="1" vertex="1">
          <mxGeometry x="550" y="120" width="28" height="50" as="geometry" />
        </mxCell>
        <mxCell id="k4uzDaEEoEpfmI62Issd-54" value="HHS" style="text;html=1;align=center;verticalAlign=middle;resizable=0;points=[];autosize=1;strokeColor=none;fillColor=none;" parent="1" vertex="1">
          <mxGeometry x="539" y="125" width="50" height="30" as="geometry" />
        </mxCell>
      </root>
    </mxGraphModel>
  </diagram>
</mxfile>
